<?xml version="1.0" encoding="UTF-8"?>
<svg version="1.1" viewBox="0 0 2048 2048" width="128" height="128" xmlns="http://www.w3.org/2000/svg">
<path transform="translate(295,63)" d="m0 0h1259l53 1 22 1 16 2 16 6 11 6 11 8 11 9 10 11 9 14 7 15 4 14 2 15 1 17v138h142l24 1 11 2 5 3 6 9 2 7 1 16-5 12-11 18-16 23-15 23-5 8v7l7 14 11 16 10 15 13 20 9 15 2 6v11l-3 12-7 11-9 4-29 1-50 1-90 1-1 5-3 57 217 2 16 1 9 3 8 7 5 10 1 5v11l-5 13-7 11-13 20-26 39-1 2v9l6 11 29 43 12 19 4 8 1 3v12l-3 10-6 9-6 5-5 2-11 1-145 1-77 1v29l-1 90v427l-1 393-1 40-2 21-3 11-6 14-10 16-8 10-7 8-12 9-14 7-16 5-17 3-33 2-29 1-423 1h-837l-28-1-21-2-16-3-18-6-16-8-16-10-10-9-8-7-7-7-11-14-10-15-9-19-5-15-4-19-2-28-1-33-1-53v-1438l1-68 2-28 4-20 6-16 11-22 8-12 7-9 12-13 13-11 17-11 18-10 16-6 16-4 19-2z" fill="#E32F3B"/>
<path transform="translate(295,63)" d="m0 0h1259l53 1 22 1 16 2 16 6 11 6 11 8 11 9 10 11 9 14 7 15 4 14 2 15 1 17v138h142l24 1 11 2 5 3 6 9 2 7 1 16-5 12-11 18-16 23-15 23-5 8v7l7 14 11 16 10 15 13 20 9 15 2 6v11l-3 12-7 11-9 4-29 1-50 1-90 1-1 5-3 57 217 2 16 1 9 3 8 7 5 10 1 5v11l-5 13-7 11-13 20-26 39-1 2v9l6 11 29 43 12 19 4 8 1 3v12l-3 10-6 9-6 5-5 2-11 1-145 1-77 1v29l-1 90v427l-1 393-1 40-2 21-3 11-6 14-10 16-8 10-7 8-12 9-14 7-16 5-17 3-33 2-29 1-423 1h-837l-28-1-21-2-16-3-18-6-16-8-16-10-10-9-8-7-7-7-11-14-10-15-9-19-5-15-4-19-2-28-1-33-1-53v-1438l1-68 2-28 4-20 6-16 11-22 8-12 7-9 12-13 13-11 17-11 18-10 16-6 16-4 19-2zm846 66-753 2-3 2v103l-1 270v424l1 258v146l-1 279-1 46 1 4 21 1h1130l54-1 35-2 10-2 10-8 7-8 8-12 2-13 1-24v-425l1-567-1-44-4-8-11-12-62-62-1-2h-2v-2l-8-7-19-19-11-9-6-4h-10l-33 11-15 3h-19l-17-4-18-5-22-10-8-7-10-8-13-14-10-15-6-10-8-21-4-12-2-16v-17l3-15 5-15 7-14 2-7-1-7-7-8-26-26-8-7-23-23-8-7-32-30-13-13-9-6-26-1z" fill="#020102"/>
<path transform="translate(1020,383)" d="m0 0 25 1 28 4 23 6 19 8 16 8 16 10 11 8 14 12 8 7 12 12 12 16 9 13 9 15 14 26 8 10 4 2 29 4 26 5 24 7 16 7 17 9 18 12 16 13 12 11 10 10 10 13 9 12 8 13 9 17 6 15 8 26 4 21 1 7 1 24-2 33-5 27-7 20-8 18-13 23-7 10-7 9-9 11-18 18-14 11-15 10-19 10-14 8-16 10-3 5-2 4-1 30-1 161-1 28-1 1h-92l-1-1-1-92-2-15-4-8-7-6-12-4-15 1-9 3-8 7-4 6-2 8-1 50v49l-2 2h-92l-1-1v-88l-2-16-4-10-7-6-10-4-10-1-12 2-8 4-8 9-3 11-1 98-2 2h-92l-1-1-1-98-3-12-4-6-6-5-9-3h-15l-12 3-8 6-4 7-2 15-1 92-2 2-40 1h-50l-2-1-1-6-1-181-1-27-13-8-16-8-26-11-16-8-17-10-14-10-11-9-13-12-12-12-10-13-9-13-12-23-8-19-7-23-4-22-2-24v-21l2-20 6-29 7-21 10-21 11-18 12-16 4-6h2l2-4 9-10 10-10 14-11 14-10 11-7 27-13 25-8 25-5 23-2 40-1 5-2 6-8 13-24 11-19 13-18 7-9 11-12 15-15 19-14 15-10 27-13 21-7 23-5 17-2z" fill="#F8F8F8"/>
<path transform="translate(1006,320)" d="m0 0h30l28 3 23 4 27 7 29 12 17 8 22 12 15 11 13 10 10 9 8 7 9 11 7 8 10 14 7 10 9 15 10 17 6 4 23 5 17 4 16 5 25 10 16 8 14 8 13 8 12 8 13 10 10 9 8 7 13 15 10 13 7 11 11 17 10 18 13 28 9 27 6 27 3 21 1 20v22l-4 30-7 29-6 20-8 20-11 22-11 18-8 10-14 19-11 13-11 12-14 12-20 15-21 14-9 7h-2l-2 15v307l-2 33-5 17-5 5-11 5-24 3-33 1h-420l-166-1-19-2-12-3-5-5-3-11-1-8-1-39-1-85v-212l-1-5-9-3-28-14-14-8-14-9-21-16-15-14-13-13-9-11-11-15-12-19-10-18-13-28-7-19-8-30-5-30-1-10v-34l3-24 6-25 7-23 7-19 12-25 12-20 11-16 8-10 12-14 13-13 8-7 13-11 14-10 12-8 13-8 17-8 12-6 14-5 41-11 25-4 25-2 6-7 14-23 8-12 13-16 7-8 14-14 8-7 13-11 11-8 14-10 19-11 22-11 14-5 24-7 22-5 19-3zm14 63-29 2-26 5-20 6-20 9-17 9-11 8-14 10-12 11-15 15-11 14-14 20-13 24-9 16-6 8-5 2-40 1-30 3-25 6-20 7-25 12-11 7-14 10-10 8-12 11-9 9-4 5v2h-2l-10 14-11 16-10 18-7 16-6 18-6 29-2 20v21l2 24 5 25 6 20 8 19 10 20 13 19 12 14 16 16 11 9 16 12 15 9 14 8 28 12 12 5 21 12 1 1 1 27 1 181 1 6 2 1h50l40-1 2-2 1-92 2-15 6-9 9-5 9-2h15l10 4 7 6 4 10 1 6 1 98 1 1h92l2-2 1-98 3-11 8-9 8-4 15-2 10 2 10 5 5 6 3 8 2 16v88l1 1h92l2-2v-55l1-44 3-10 9-10 6-3 14-2 10 1 9 4 7 6 3 7 2 15 1 92 1 1h92l1-1 1-28 1-161 1-30 4-8 15-10 15-8 18-10 16-10 13-11 8-7 15-15 8-10 10-14 10-17 9-17 9-24 4-15 3-18 2-33-1-24-4-24-8-27-5-13-8-17-9-15-8-11-12-15-7-8-12-12-11-9-13-10-19-12-23-11-21-7-28-6-26-4-9-1-6-4-7-10-15-28-13-20-10-13-8-10-15-15-10-8-11-9-17-11-12-7-20-9-18-6-25-5-16-2z" fill="#020102"/>
<path transform="translate(329,1728)" d="m0 0h1198l7 1 1 1v33l-1 26-1 1-284 1h-476l-18 1-9 4-4 5-4 8-2 13 4 18 6 10 9 3 22 2h752l5 1 1 2v58l-1 1-54 1h-1185l-21-1-18-3-13-5-11-7-10-9-9-10-9-14-7-17-4-16v-27l4-17 5-13 7-11 11-13 7-7 13-9 13-6 15-3 14-1z" fill="#F7F7F7"/>
<path transform="translate(303,130)" d="m0 0h14l1 11v74l-1 179v1267l-4 2-43 3-26 4-20 5-24 8-7 1-1-1v-24l1-91 1-1230 1-140 3-12 5-9 9-10 11-12 11-9 13-8 12-4 17-2z" fill="#951820"/>
<path transform="translate(1329,128)" d="m0 0h263l32 2 11 3 10 8 7 7 2 1 5 11 1 5 1 14 1 77v197l-1 12-5-5-13-15-15-15-8-7-27-27-8-7-3-4 1-7 8-16 7-20 2-11v-24l-4-17-7-19-10-21-9-13-11-12-11-9-13-8-19-8-23-7-16-2h-17l-20 4-15 6-12 5-12 1-5-5-9-11-7-7v-2h-2l-7-8-23-23-8-7-7-6-5-7z" fill="#FEBD48"/>
<path transform="translate(764,1280)" d="m0 0h543l4 3v57l-6 2-81 1h-481l-6-1v-59l1-2z" fill="#C5C8C8"/>
<path transform="translate(1082,904)" d="m0 0 12 1 12 7 9 7 5 5 12 11 16 12 15 10 11 6 17 9 19 8 9 3 5 1 7 5 10 5 5 6 1 5v21l-4 8-9 8-7 4-4 1h-10l-17-4-27-9-25-12-24-14-11-8-14-11-11-10-14-7-6-2-32-1h-51l-9 1-14 12-11 11-15 11-25 15-22 11-19 8-19 6-10 3h-17l-6-4-8-8-6-13-3-16 3-6 8-7 19-10 20-8 16-7 23-12 15-10 14-11 11-10 7-6 6-7 12-6 1-1h119z" fill="#020102"/>
<path transform="translate(1010,1504)" d="m0 0h97l182 1 15 1 5 2 1 11v17l-5 24-2 8-25 2-29 1h-177l-60-2-12-2-4-3-3-16v-22l5-16 3-4z" fill="#020102"/>
<path transform="translate(1732,704)" d="m0 0h149l8 2-1 5-6 9-12 16-12 19-2 6v11l5 12 10 16 11 14 8 8 1 5-9 2-23 1-124 1-6-2-1-18v-104l1-2z" fill="#0098B5"/>
<path transform="translate(292,1790)" d="m0 0h80l92 1 27 1 9 2 5 6 4 10 1 7v13l-3 11-3 6-5 5-4 2-7 1-96 1h-103l-15-2-9-4-6-8-4-13v-13l4-12 7-8 7-4 5-1z" fill="#020102"/>
<path transform="translate(1458,257)" d="m0 0h17l18 3 16 8 11 10 9 12 5 12v25l-5 16-6 10-12 13-8 7-12 6-13 3h-18l-16-5-11-7-9-9-7-10-5-10v-2h-2l-2-11v-15l3-12 8-16 9-11 7-7 14-8z" fill="#F8AA3D"/>
<path transform="translate(764,1280)" d="m0 0h543l4 3v57l-1 1h-78v-1l56-4 7-2 4-2 2-8v-11l-1-11-3-3-3-1-40-2h-30l-21 1-63 1h-36l-36 1h-207l-29-1h-12l-39-2-23 2-6 1-1 4h-2l-1 17 1 8 2 5 5 3 7 1v2l25 1h306l-1 2h-356v-59l1-2z" fill="#F2F5F5"/>
<path transform="translate(1655,1722)" d="m0 0 4 1v138l-1 18-2 10-6 11-7 6-14 7-11 3h-16l1-186 4-2 38-5z" fill="#951820"/>
<path transform="translate(796,1503)" d="m0 0h25l85 3 19 2 1 10v19l-6 24-1 7-1 1-18 1h-67l-31-1-19-2-10-3-3-3-2-8-1-20 3-14 4-10 4-4 4-1z" fill="#020102"/>
<path transform="translate(1772,385)" d="m0 0h51l-2 5-10 16-10 15-8 14-2 6v11l5 13 8 12 10 14 1 4-7 1h-5l5 5 9-2h3l3 4-1 4-18 1-31 1h-44v-14l2-32 2-1-2-3v-3h3v-15l-3-2 1-4h1l1-7h-3l-1-36v-6z" fill="#0097B4"/>
<path transform="translate(600,1791)" d="m0 0h37l13 1 10 4 6 7 4 9 1 7v9l-4 12-4 6-7 6-6 2-24 2-23-1-13-3-8-7-4-8-2-9v-14l4-11 5-5 7-5z" fill="#030102"/>
<path transform="translate(1593,165)" d="m0 0 9 1h5l5 3 5 4 4 4 3 9 3 15-2 6h-2v7l1 3-3 4h-7l-1 2v4l-5-1v-3l-5-1-2-4-5-1-1-4-5 1-5-5-4 1-8-6-9-6-5-2v-2l-6-2-9-8-1-4 2-4h2l-1-5 9-3 9 1v-2l3-1h7l3 3 8-1 7-2z" fill="#F9AB3D"/>
<path transform="translate(386,132)" d="m0 0 2 1-1 1v1219l-1 253h-1v-418l-1-269v-413l1-270v-103z" fill="#951820"/>
<path transform="translate(1264,159)" d="m0 0 4 2 12 12 8 7 16 15 20 20 8 7 26 26 2 5-1 8-5 12-5 10-5 18-1 7v17l2 16 7 21 7 16 8 12 8 11 14 15 13 10 8 5 19 8 26 7 6 1h19l18-4 30-10h10l11 8 15 14 16 16 2 1v2h2l7 8 64 64-1 2-50-50-8-7v-2l-3-1-7-8-5-4-5-6-4-3v-2l-4-2-7-6-4-4v-2l-5-2-5-4-5-5-6-5-6 1-13 4-17 6-8 4-7 1h-23l-22-5-11-4-6-2-16-7-6-4v-2l-5-2-12-11-4-3v-2h-2l-8-10v-2h-2l-7-11-5-8-8-20-6-18-2-22 1-15 5-20 8-16 2-9v-8l-6-7-8-7-42-42-8-7-8-8-8-7-12-12z" fill="#951820"/>
<path transform="translate(960,898)" d="m0 0h50l34 1 46 2 10 6-2 1-4-2-12-1-18 1h-112l-2 1 1-3 7-2z" fill="#A9C1C6"/>
<path transform="translate(1268,457)" d="m0 0 4 4 7 12 4 5 15 4 4 2 16 3 21 6 26 10 19 9 12 7 14 8 16 11 9 7 10 9 2 1v2l4 2 11 12v2h2l10 13 7 10 12 20-1 2-14-21-7-10-7-9-13-15-13-12-16-12-12-8-10-6-9-6-26-13-28-11-23-6-25-5-8-4-7-10-6-11z" fill="#951820"/>
<path transform="translate(981,968)" d="m0 0h51l32 1 8 3v1l-8-1h-4l-13 2-27 1-7-1h-46l5-5z" fill="#ACC2C6"/>
<path transform="translate(1444,661)" d="m0 0 3 3 9 19 8 25 4 16 3 19 1 24-2 33-5 27-3 9-1-4 2-6 2-12 2-13 1-15v-33l-3-24-6-24-12-36-3-6z" fill="#B6C5C7"/>
<path transform="translate(482,715)" d="m0 0h1l-1 9-3 24v34l3 24 5 24 7 25 8 21 15 31 12 20 11 16 7 9-1 2-9-11-16-24-13-23-6-15-4-8-6-16-6-20-6-28-4-33v-30l4-24z" fill="#951820"/>
<path transform="translate(1141,345)" d="m0 0 6 1 17 9 16 8 11 7 10 7 13 10 7 7 8 7 9 11 5 5 10 14 7 10 8 14-1 2-9-14-10-14-10-13-10-11-5-6-8-7-16-13-13-9-13-8-23-12-9-4z" fill="#951820"/>
<path transform="translate(1244,540)" d="m0 0 26 4 24 4 20 5 21 7 10 5-3 1-12-5-16-5-14-3-25-4-19-4-9-2z" fill="#B2C3C6"/>
<path transform="translate(1605,1904)" d="m0 0 5 3 2 4 6-2 9 1 5-1-1 2h-2v2l-11 3h-13l-2-1v-7z" fill="#D72C37"/>
<path transform="translate(1435,267)" d="m0 0 2 1-1 2h-2v2h-2l-2 4-9 12-6 11-3 7h-1l1-8 7-13 9-11z" fill="#FEBB47"/>
<path transform="translate(1459,255)" d="m0 0h17l16 3 8 4-2 1-9-3-14-2h-17l-9 1 2-2z" fill="#981821"/>
<path transform="translate(1469,784)" d="m0 0h1v16l-5 27-3 9-1-4 2-6 2-12 2-13 1-15z" fill="#A0BFC5"/>
<path transform="translate(1513,360)" d="m0 0h2l-2 4-10 9-12 6h-5l2-3 3-2 5-1 4-2 9-7z" fill="#FDBA46"/>
<path transform="translate(583,545)" d="m0 0 2 1-14 13-8 7-9 9-6 7v-3l12-13 12-12z" fill="#951820"/>
<path transform="translate(1435,267)" d="m0 0 2 1-1 2h-2v2h-2l-2 4-5 3 2-4z" fill="#FDB946"/>
<path transform="translate(1416,293)" d="m0 0 1 3-5 10h-1l1-8z" fill="#FDBA46"/>
</svg>
